<svg width="264" height="138" viewBox="0 0 264 138" fill="none" xmlns="http://www.w3.org/2000/svg">
<path d="M12 53L98 13M98 13L200.5 53M98 13V125.5M200.5 53L251.5 125.5H98M200.5 53L98 125.5" stroke="black" stroke-miterlimit="3.8637" stroke-dasharray="2 4"/>
<circle cx="13" cy="53" r="12.5" fill="white" stroke="black"/>
<path d="M7.52185 58.5C7.7717 55.6553 10.133 53.4334 12.9987 53.4334C15.867 53.4334 18.2283 55.6554 18.4781 58.5H7.52185ZM12.9987 52.4334C11.3874 52.4334 10.0708 51.1104 10.0708 49.4666C10.0708 47.823 11.3872 46.5 12.9987 46.5C14.6129 46.5 15.9291 47.8233 15.9291 49.4666C15.9291 51.1102 14.6129 52.4334 12.9987 52.4334Z" stroke="black"/>
<circle cx="251" cy="125" r="12.5" fill="white" stroke="black"/>
<path d="M252.205 127.242C252.208 127.066 252.188 126.91 252.145 126.775C252.103 126.64 252.032 126.517 251.933 126.406C251.833 126.295 251.705 126.192 251.546 126.097C251.39 126.002 251.197 125.909 250.967 125.817C250.575 125.655 250.221 125.486 249.903 125.311C249.582 125.135 249.306 124.934 249.082 124.708C248.855 124.481 248.682 124.218 248.557 123.918C248.435 123.617 248.378 123.261 248.384 122.849C248.387 122.492 248.446 122.167 248.563 121.875C248.682 121.583 248.844 121.33 249.057 121.114C249.267 120.899 249.522 120.726 249.815 120.594C250.107 120.462 250.434 120.38 250.797 120.348L250.814 119L251.782 119.016L251.762 120.383C252.109 120.44 252.421 120.547 252.699 120.707C252.98 120.868 253.216 121.073 253.409 121.324C253.605 121.575 253.753 121.871 253.855 122.211C253.957 122.551 254.005 122.931 254 123.351L252.256 123.323C252.262 122.818 252.168 122.439 251.972 122.186C251.776 121.933 251.512 121.804 251.177 121.798C250.996 121.795 250.839 121.821 250.709 121.876C250.575 121.93 250.468 122.006 250.382 122.103C250.297 122.201 250.232 122.317 250.192 122.45C250.15 122.584 250.127 122.729 250.124 122.884C250.124 123.04 250.141 123.181 250.181 123.307C250.218 123.434 250.286 123.552 250.385 123.661C250.482 123.769 250.61 123.872 250.771 123.969C250.933 124.067 251.135 124.168 251.373 124.272C251.762 124.443 252.114 124.616 252.432 124.794C252.75 124.971 253.023 125.174 253.25 125.403C253.474 125.632 253.65 125.896 253.772 126.196C253.894 126.497 253.954 126.85 253.949 127.258C253.943 127.628 253.883 127.959 253.764 128.251C253.645 128.543 253.48 128.795 253.267 129.006C253.057 129.216 252.802 129.385 252.504 129.51C252.208 129.635 251.876 129.714 251.516 129.746L251.498 131L250.539 130.984L250.556 129.736C250.224 129.693 249.9 129.606 249.591 129.475C249.281 129.344 249.006 129.158 248.767 128.916C248.529 128.675 248.341 128.372 248.199 128.009C248.06 127.645 247.992 127.211 248.001 126.707L249.744 126.735C249.741 127.034 249.775 127.283 249.846 127.484C249.917 127.685 250.014 127.846 250.139 127.968C250.264 128.09 250.403 128.176 250.562 128.227C250.718 128.278 250.88 128.305 251.044 128.307C251.234 128.311 251.402 128.286 251.544 128.234C251.689 128.181 251.808 128.107 251.907 128.012C252.004 127.917 252.078 127.804 252.126 127.672C252.177 127.541 252.203 127.397 252.206 127.242L252.205 127.242Z" fill="black"/>
<circle cx="199" cy="53" r="23.5" fill="white" stroke="black"/>
<circle cx="199" cy="53" r="19.5" fill="white" stroke="black"/>
<path d="M190.515 62.5C190.777 58.1176 194.469 54.6335 198.998 54.6335C203.531 54.6335 207.223 58.1178 207.485 62.5H190.515ZM198.998 53.6335C196.428 53.6335 194.356 51.5818 194.356 49.0665C194.356 46.5517 196.428 44.5 198.998 44.5C201.572 44.5 203.644 46.5519 203.644 49.0665C203.644 51.5816 201.572 53.6335 198.998 53.6335Z" stroke="black"/>
<circle cx="98" cy="15" r="14.5" fill="white" stroke="black"/>
<path d="M106.475 9.38155L106.483 9.39295L106.491 9.4039C106.494 9.40747 106.496 9.41045 106.498 9.4128L106.486 9.4424L106.478 9.4824L104.819 17.4472L104.816 17.4618L104.814 17.4765C104.812 17.4866 104.81 17.4927 104.809 17.4959C104.808 17.4964 104.806 17.4971 104.804 17.4978C104.794 17.5012 104.77 17.5079 104.724 17.5079H93.3618C93.1259 16.0435 92.9423 14.5702 92.7574 13.0861L92.7574 13.0859L92.7574 13.0859L92.7562 13.077L92.7561 13.0766C92.5479 11.4052 92.3378 9.72013 92.051 8.04268L91.98 7.62694H91.5582H89.5795C89.5226 7.62694 89.5 7.58507 89.5 7.56347C89.5 7.53911 89.5083 7.52627 89.5152 7.5194C89.5209 7.5137 89.5377 7.5 89.5795 7.5H92.0379C92.0793 7.5 92.1155 7.5268 92.1274 7.56734L92.3644 8.95004L92.4357 9.36556H92.8572H106.428C106.446 9.36556 106.452 9.36578 106.458 9.36642C106.46 9.36668 106.462 9.36698 106.463 9.36722C106.465 9.36919 106.47 9.37353 106.475 9.38155ZM94.0166 21.1151C94.0166 20.3582 94.6554 19.7301 95.4553 19.7301C96.2718 19.7301 96.8939 20.3549 96.8939 21.1151C96.8939 21.8752 96.2716 22.5 95.4553 22.5C94.6388 22.5 94.0166 21.8751 94.0166 21.1151ZM100.372 21.1151C100.372 20.3583 101.011 19.7301 101.811 19.7301C102.627 19.7301 103.249 20.355 103.249 21.1151C103.249 21.8752 102.627 22.5 101.811 22.5C100.994 22.5 100.372 21.8751 100.372 21.1151Z" stroke="black"/>
</svg>
