<svg width="210" height="140" viewBox="0 0 210 140" fill="none" xmlns="http://www.w3.org/2000/svg">
<g filter="url(#filter0_d_3754_148)">
<path d="M15 13H195V123H15V13Z" fill="white"/>
</g>
<rect x="25" y="27" width="74" height="7" fill="#D9D9D9"/>
<rect x="25" y="40" width="47" height="7" fill="#D9D9D9"/>
<rect x="34" y="97" width="14" height="19" fill="#F8D9D0"/>
<rect x="52" y="89" width="14" height="27" fill="#F8D9D0"/>
<rect x="88" y="84" width="14" height="32" fill="#F8D9D0"/>
<rect x="70" y="77" width="14" height="39" fill="#F8D9D0"/>
<rect x="106" y="72" width="14" height="44" fill="#F8D9D0"/>
<rect x="124" y="63" width="14" height="53" fill="#F8D9D0"/>
<rect x="142" y="53" width="14" height="63" fill="#F8D9D0"/>
<rect x="160" y="44" width="14" height="72" fill="#F8D9D0"/>
<path d="M34 89.5L85.5 61.5L91.8956 73.5973L174 30" stroke="#182C3A"/>
<circle cx="34" cy="89" r="2.5" fill="white" stroke="#182C3A"/>
<circle cx="85" cy="62" r="2.5" fill="white" stroke="#182C3A"/>
<circle cx="92" cy="73" r="2.5" fill="white" stroke="#182C3A"/>
<circle cx="174" cy="30" r="2.5" fill="white" stroke="#182C3A"/>
<defs>
<filter id="filter0_d_3754_148" x="0" y="0" width="210" height="140" filterUnits="userSpaceOnUse" color-interpolation-filters="sRGB">
<feFlood flood-opacity="0" result="BackgroundImageFix"/>
<feColorMatrix in="SourceAlpha" type="matrix" values="0 0 0 0 0 0 0 0 0 0 0 0 0 0 0 0 0 0 127 0" result="hardAlpha"/>
<feOffset dy="2"/>
<feGaussianBlur stdDeviation="7.5"/>
<feComposite in2="hardAlpha" operator="out"/>
<feColorMatrix type="matrix" values="0 0 0 0 0 0 0 0 0 0 0 0 0 0 0 0 0 0 0.15 0"/>
<feBlend mode="normal" in2="BackgroundImageFix" result="effect1_dropShadow_3754_148"/>
<feBlend mode="normal" in="SourceGraphic" in2="effect1_dropShadow_3754_148" result="shape"/>
</filter>
</defs>
</svg>
